<svg width="89" height="100" viewBox="0 0 89 100" fill="none" xmlns="http://www.w3.org/2000/svg">
<path d="M56.9157 52.915H56.913C55.4061 52.915 54.1846 54.1366 54.1846 55.6435V55.6462C54.1846 57.1531 55.4061 58.3746 56.913 58.3746H56.9157C58.4226 58.3746 59.6442 57.1531 59.6442 55.6462V55.6435C59.6442 54.1366 58.4226 52.915 56.9157 52.915Z" fill="#6C9FFF"/>
<path d="M44.4162 0C19.9264 0 0 19.9264 0 44.4162V90.7922H8.77845V99.3526H80.0565V90.7922H88.835V44.4162C88.835 19.9264 68.9086 0 44.4162 0ZM77.0515 96.3476H11.7808V90.7922H77.0515V96.3476ZM85.8299 87.7872H3.00238V82.2319H85.8299V87.7872ZM76.4318 79.2295H69.3261V43.8657C69.3261 30.1302 58.1489 18.9531 44.4135 18.9531C30.678 18.9531 19.5009 30.1276 19.5009 43.8657V79.2295H12.3951V43.6928C12.3951 26.0402 26.7582 11.6771 44.4135 11.6771C62.0688 11.6771 76.4292 26.0402 76.4292 43.6928V79.2295H76.4318ZM66.3237 79.2295H22.5086V43.8657C22.5086 31.7843 32.3375 21.9581 44.4188 21.9581C56.5002 21.9581 66.3264 31.787 66.3264 43.8657V79.2295H66.3237ZM79.4369 79.2295V43.6928C79.4369 24.3834 63.7282 8.67208 44.4162 8.67208C25.1041 8.67208 9.39808 24.3834 9.39808 43.6955V79.2321H3.00238V44.4188C3.00238 21.5805 21.5831 3.00239 44.4188 3.00239C67.2545 3.00239 85.8326 21.5805 85.8326 44.4162V79.2295H79.4395H79.4369Z" fill="#6C9FFF"/>
</svg>
