<svg width="266" height="109" viewBox="0 0 266 109" fill="none" xmlns="http://www.w3.org/2000/svg">
<path d="M141.21 103.445H142.852V75.5312C142.314 75.6664 141.765 75.7643 141.21 75.8249V103.445Z" fill="#5782F2"/>
<path d="M146.135 103.445H147.777V73.8896C147.25 74.2284 146.701 74.53 146.135 74.7945V103.445Z" fill="#5782F2"/>
<path d="M151.062 70.8922V103.446H152.703V68.9648C152.06 69.8161 151.527 70.4139 151.22 70.7343C151.167 70.787 151.114 70.8396 151.062 70.8922Z" fill="#5782F2"/>
<path d="M169.141 21.0706C164.104 21.0706 159.468 23.1019 155.793 26.4884C156.2 26.9594 156.584 27.456 156.956 27.9718C160.307 24.8352 164.54 22.9545 169.141 22.9545C179.979 22.9545 188.797 33.3673 188.797 46.1637C188.797 58.9602 179.979 69.3729 169.141 69.3729C164.71 69.3729 160.618 67.63 157.324 64.6984C156.982 65.195 156.604 65.698 156.187 66.2011C159.795 69.3729 164.283 71.2601 169.141 71.2601C181.021 71.2601 190.684 60.0015 190.684 46.1637C190.684 32.326 181.021 21.0674 169.141 21.0674V21.0706Z" fill="#5782F2"/>
<path d="M168.887 27.6414C177.409 27.6414 184.343 35.9524 184.343 46.1665C184.343 56.3806 177.409 64.6916 168.887 64.6916C165.34 64.6916 162.072 63.2499 159.464 60.8373C159.224 61.3916 158.942 61.9843 158.612 62.5963C161.489 65.0953 165.045 66.5787 168.89 66.5787C178.454 66.5787 186.233 57.4219 186.233 46.1697C186.233 34.9176 178.454 25.7607 168.89 25.7607C164.898 25.7607 161.22 27.3595 158.285 30.038C158.602 30.5923 158.907 31.169 159.189 31.7617C161.842 29.1889 165.218 27.6447 168.89 27.6447L168.887 27.6414Z" fill="#5782F2"/>
<path d="M161.044 36.7946C163.024 34.4044 165.741 32.9242 168.74 32.9242C174.773 32.9242 179.682 38.9091 179.682 46.2622C179.682 53.6152 174.773 59.6001 168.74 59.6001C165.793 59.6001 163.117 58.1647 161.147 55.8451C160.964 56.5692 160.766 57.2772 160.538 57.9597C162.762 60.1608 165.623 61.4872 168.74 61.4872C175.814 61.4872 181.569 54.6564 181.569 46.2622C181.569 37.8679 175.814 31.0371 168.74 31.0371C165.559 31.0371 162.643 32.4244 160.4 34.7088C160.445 34.8338 160.49 34.9523 160.535 35.0773C160.721 35.6347 160.887 36.2082 161.044 36.7946Z" fill="#5782F2"/>
<path d="M41.8266 29.6235C40.4745 27.4352 38.6098 25.641 36.271 24.2857C33.663 22.7767 30.4334 22.011 26.6752 22.011C23.8045 22.011 21.0972 22.5492 18.6334 23.6097C16.1631 24.6734 14.0101 26.2722 12.2287 28.3611C10.4505 30.4469 9.04722 33.0453 8.05721 36.0826C7.06719 39.1135 6.56738 42.6859 6.56738 46.7036C6.56738 50.7213 7.06719 54.1944 8.05721 57.2221C8.77168 59.4103 9.73606 62.1625 12.2287 64.9435C14.9777 68.0097 18.0951 69.4066 19.6618 69.9865C21.2926 70.592 26.5022 72.5208 32.1507 70.2428C39.4076 67.3144 41.5254 59.8076 41.7689 58.8849C41.7881 62.6816 41.8073 66.4782 41.8266 70.2749H54.6294V0L41.8266 4.45986V29.6203V29.6235ZM20.5813 40.363C21.1805 38.6361 21.9879 37.204 22.9779 36.1146C23.9679 35.0253 25.1373 34.2051 26.4573 33.6796C27.7806 33.151 29.1935 32.8819 30.6481 32.8819C33.8264 32.8819 36.5112 34.0225 38.629 36.2716C40.75 38.5272 41.8266 41.9362 41.8266 46.4024V46.8093C41.8266 51.3461 40.75 54.7903 38.629 57.0427C36.5112 59.2918 33.8264 60.4324 30.6481 60.4324C29.1871 60.4324 27.7774 60.1633 26.4541 59.6346C25.1373 59.1092 23.9647 58.289 22.9747 57.1996C21.9815 56.1071 21.1741 54.6782 20.5781 52.948C19.979 51.2147 19.6746 49.1161 19.6746 46.7068C19.6746 44.2974 19.979 42.0996 20.5781 40.363H20.5813Z" fill="#0A3323"/>
<path d="M92.1656 49.7609C92.1656 51.0841 91.9125 52.3913 91.4191 53.6472C90.9225 54.9064 90.2336 56.0309 89.375 56.9889C88.5163 57.9469 87.4782 58.7158 86.2896 59.2765C85.1041 59.8372 83.7681 60.1191 82.3135 60.1191C79.8785 60.1191 77.9145 59.3054 76.476 57.7002C75.0278 56.0886 74.2941 53.0385 74.2941 48.6363V22.8223H61.4912V52.8142C61.4912 56.1591 61.9237 59.033 62.7792 61.3527C63.6346 63.6851 64.8361 65.6171 66.3516 67.0941C67.8638 68.5743 69.6612 69.6572 71.6925 70.3108C74.749 71.2944 77.4307 71.3105 78.1324 71.2912C80.0772 71.2368 83.6303 71.1342 86.9432 68.7729C91.2012 65.7388 92.2072 61.0002 92.4347 59.7379C92.345 63.2494 92.2553 66.7609 92.1656 70.2724H105.068V22.8255H92.2681L92.1656 49.7609Z" fill="#0A3323"/>
<path d="M197.572 70.2915H210.478V0.0166016L197.572 4.49889V70.2915Z" fill="#0A3323"/>
<path d="M256.972 32.4581C255.771 29.9206 254.137 27.8508 252.112 26.3097C250.094 24.7719 247.768 23.6601 245.198 23.0065C242.644 22.3593 239.966 22.0293 237.243 22.0293C233.443 22.0293 230.015 22.3753 227.051 23.0546C224.094 23.7338 221.764 24.4579 220.127 25.2108L219.961 25.2877L221.88 35.851L222.152 35.7293C223.969 34.9219 226.016 34.2074 228.233 33.6019C230.444 32.9995 232.754 32.692 235.099 32.692C238.294 32.692 240.857 33.3295 242.712 34.5887C244.496 35.7998 245.518 37.988 245.752 41.0926C240.498 41.2368 236.006 41.7334 232.398 42.5697C228.717 43.4219 225.744 44.5817 223.559 46.0171C221.361 47.4588 219.756 49.205 218.788 51.2074C217.827 53.2003 217.34 55.4302 217.34 57.8331C217.34 61.963 218.74 65.2791 221.495 67.6916C224.241 70.0978 227.724 71.3152 231.841 71.3152C232.997 71.3152 234.929 71.3441 237.009 70.5912C243.545 68.2235 245.685 60.3578 245.989 59.1724C245.951 62.8793 245.912 66.5895 245.874 70.2964H258.674L258.776 42.0378C258.776 38.2187 258.167 34.9988 256.969 32.4613L256.972 32.4581ZM245.775 51.7905C245.441 54.7798 244.317 57.1988 242.433 58.9833C240.552 60.7679 238.393 61.6714 236.022 61.6714C234.058 61.6714 232.552 61.178 231.549 60.2105C230.543 59.2397 230.002 57.9901 229.941 56.5003C229.874 54.2031 231.014 52.5242 233.424 51.3708C235.83 50.2174 239.985 49.4933 245.771 49.2146V51.7937L245.775 51.7905Z" fill="#0A3323"/>
<path d="M153.628 28.3045C151.843 26.2508 149.674 24.668 147.172 23.6075C144.673 22.5471 141.949 22.0088 139.079 22.0088C135.317 22.0088 132.123 22.7745 129.582 24.2836C127.304 25.6388 125.475 27.4298 124.129 29.6181V22.7233H111.326V103.444H124.135C124.203 92.4895 124.26 70.5771 124.328 59.6229C124.956 61.4747 126.628 65.4668 130.7 68.2382C136.823 72.4033 144.685 71.298 149.453 68.4016C149.815 68.1805 151.718 67.0047 153.624 64.842C156.146 61.9809 157.158 59.1391 157.847 57.0693C158.869 54.0032 159.388 50.4468 159.388 46.4996C159.388 42.5524 158.869 39.012 157.847 35.9779C156.822 32.9406 155.403 30.3582 153.624 28.3077L153.628 28.3045ZM145.381 52.9395C144.782 54.6696 143.977 56.0985 142.984 57.1911C141.994 58.2804 140.822 59.1006 139.505 59.6261C138.181 60.1547 136.772 60.4238 135.314 60.4238C132.136 60.4238 129.451 59.2832 127.333 57.0341C125.212 54.7817 124.135 51.3407 124.135 46.8008V46.3939C124.135 41.9244 125.212 38.5154 127.333 36.263C129.451 34.0139 132.136 32.8733 135.314 32.8733C136.772 32.8733 138.181 33.1424 139.505 33.6711C140.825 34.1997 141.994 35.0199 142.984 36.1061C143.974 37.1954 144.782 38.6243 145.381 40.3545C145.98 42.0878 146.284 44.2216 146.284 46.6982C146.284 49.1749 145.98 51.2061 145.381 52.9395Z" fill="#0A3323"/>
<path d="M179.797 100.551C179.089 101.04 178.28 101.428 177.37 101.714C176.476 101.984 175.532 102.119 174.538 102.119C173.257 102.119 172.077 101.883 170.998 101.411C169.92 100.939 168.984 100.298 168.192 99.4894C167.4 98.6635 166.776 97.6943 166.321 96.5819C165.883 95.4525 165.664 94.2474 165.664 92.9664C165.664 91.6517 165.891 90.4381 166.346 89.3256C166.801 88.2132 167.425 87.2524 168.217 86.4434C169.026 85.6175 169.97 84.977 171.049 84.5219C172.145 84.0668 173.324 83.8392 174.589 83.8392C175.549 83.8392 176.417 83.9404 177.193 84.1426C177.968 84.3449 178.71 84.6314 179.418 85.0023V86.2411C178.743 85.8029 177.993 85.4742 177.167 85.2551C176.358 85.0191 175.516 84.9011 174.639 84.9011C173.51 84.9011 172.465 85.1118 171.504 85.5332C170.543 85.9546 169.709 86.5277 169.001 87.2524C168.31 87.9772 167.762 88.8284 167.358 89.806C166.97 90.7836 166.776 91.8371 166.776 92.9664C166.776 94.1294 166.97 95.2081 167.358 96.2026C167.762 97.1802 168.31 98.0314 169.001 98.7562C169.692 99.4641 170.518 100.029 171.479 100.45C172.44 100.855 173.476 101.057 174.589 101.057C175.583 101.057 176.519 100.905 177.395 100.602C178.288 100.282 179.089 99.8602 179.797 99.3377V100.551ZM183.31 84.1173H184.347V99.7169C184.347 100.678 184.802 101.158 185.712 101.158C185.982 101.158 186.243 101.124 186.496 101.057V101.992C186.277 102.077 185.999 102.119 185.662 102.119C184.903 102.119 184.322 101.925 183.917 101.537C183.513 101.133 183.31 100.568 183.31 99.8434V84.1173ZM190.564 83.9657C190.833 83.9657 191.061 84.0584 191.246 84.2438C191.432 84.4123 191.524 84.6399 191.524 84.9264C191.524 85.2129 191.432 85.4489 191.246 85.6343C191.061 85.8029 190.833 85.8872 190.564 85.8872C190.277 85.8872 190.041 85.8029 189.856 85.6343C189.687 85.4489 189.603 85.2129 189.603 84.9264C189.603 84.6399 189.687 84.4123 189.856 84.2438C190.041 84.0584 190.277 83.9657 190.564 83.9657ZM190.033 89.1739H191.069V101.815H190.033V89.1739ZM201.088 88.8705C201.914 88.8705 202.673 89.0222 203.364 89.3256C204.055 89.6122 204.653 90.0167 205.159 90.5392C205.665 91.0449 206.052 91.6517 206.322 92.3596C206.609 93.0675 206.752 93.8344 206.752 94.6603C206.752 94.8289 206.743 94.9975 206.727 95.166C206.727 95.3346 206.71 95.4694 206.676 95.5705H195.956C195.973 96.3964 196.116 97.1549 196.386 97.846C196.672 98.5371 197.052 99.127 197.524 99.6158C198.012 100.088 198.585 100.459 199.243 100.728C199.917 100.998 200.642 101.133 201.417 101.133C202.226 101.133 203.044 101.006 203.87 100.754C204.696 100.484 205.387 100.105 205.943 99.6158V100.779C205.319 101.268 204.586 101.613 203.743 101.815C202.917 102.018 202.1 102.119 201.291 102.119C200.313 102.119 199.428 101.95 198.636 101.613C197.844 101.259 197.17 100.787 196.613 100.197C196.057 99.5905 195.627 98.8826 195.324 98.0736C195.021 97.2476 194.869 96.3627 194.869 95.4188C194.869 94.4918 195.029 93.6322 195.349 92.84C195.669 92.0478 196.108 91.3567 196.664 90.7668C197.22 90.1768 197.878 89.7133 198.636 89.3762C199.395 89.0391 200.212 88.8705 201.088 88.8705ZM201.038 89.8566C200.364 89.8566 199.732 89.983 199.142 90.2358C198.569 90.4718 198.055 90.8089 197.599 91.2471C197.161 91.6685 196.799 92.1742 196.512 92.7641C196.226 93.3372 196.057 93.9609 196.007 94.6351H205.69C205.69 93.8934 205.564 93.2361 205.311 92.663C205.058 92.0731 204.721 91.5674 204.299 91.146C203.895 90.7246 203.406 90.4044 202.833 90.1853C202.277 89.9661 201.678 89.8566 201.038 89.8566ZM211.435 92.1573C211.823 91.1966 212.43 90.4128 213.256 89.806C214.098 89.1824 215.101 88.8705 216.264 88.8705C216.989 88.8705 217.638 88.997 218.211 89.2498C218.784 89.5026 219.273 89.8566 219.678 90.3117C220.082 90.7668 220.386 91.3061 220.588 91.9298C220.807 92.5366 220.916 93.1939 220.916 93.9019V101.815H219.88V93.9524C219.88 93.3625 219.787 92.8147 219.602 92.309C219.433 91.8034 219.18 91.3736 218.843 91.0196C218.523 90.6488 218.127 90.3622 217.655 90.16C217.2 89.9577 216.677 89.8566 216.087 89.8566C215.413 89.8566 214.79 89.9999 214.216 90.2864C213.66 90.5729 213.171 90.9522 212.75 91.4241C212.346 91.8961 212.025 92.4439 211.789 93.0675C211.57 93.6912 211.461 94.3485 211.461 95.0396V101.815H210.424V89.1739H211.435V92.1573ZM231.074 101.841C230.889 101.925 230.645 101.992 230.341 102.043C230.055 102.094 229.743 102.119 229.406 102.119C228.445 102.119 227.636 101.815 226.979 101.209C226.321 100.585 225.993 99.6917 225.993 98.5286V90.1094H223.945V89.1739H226.018V85.8619L227.029 85.5079V89.1739H230.392V90.1094H227.029V98.4781C227.029 99.3714 227.265 100.046 227.737 100.501C228.226 100.939 228.824 101.158 229.532 101.158C229.768 101.158 230.021 101.133 230.291 101.082C230.577 101.032 230.839 100.956 231.074 100.855V101.841ZM239.556 88.8705C240.382 88.8705 241.141 89.0222 241.832 89.3256C242.523 89.6122 243.121 90.0167 243.627 90.5392C244.132 91.0449 244.52 91.6517 244.79 92.3596C245.076 93.0675 245.22 93.8344 245.22 94.6603C245.22 94.8289 245.211 94.9975 245.194 95.166C245.194 95.3346 245.177 95.4694 245.144 95.5705H234.424C234.441 96.3964 234.584 97.1549 234.853 97.846C235.14 98.5371 235.519 99.127 235.991 99.6158C236.48 100.088 237.053 100.459 237.71 100.728C238.385 100.998 239.109 101.133 239.885 101.133C240.694 101.133 241.511 101.006 242.337 100.754C243.163 100.484 243.854 100.105 244.41 99.6158V100.779C243.787 101.268 243.054 101.613 242.211 101.815C241.385 102.018 240.567 102.119 239.758 102.119C238.781 102.119 237.896 101.95 237.104 101.613C236.311 101.259 235.637 100.787 235.081 100.197C234.525 99.5905 234.095 98.8826 233.792 98.0736C233.488 97.2476 233.337 96.3627 233.337 95.4188C233.337 94.4918 233.497 93.6322 233.817 92.84C234.137 92.0478 234.575 91.3567 235.132 90.7668C235.688 90.1768 236.345 89.7133 237.104 89.3762C237.862 89.0391 238.68 88.8705 239.556 88.8705ZM239.506 89.8566C238.831 89.8566 238.199 89.983 237.609 90.2358C237.036 90.4718 236.522 90.8089 236.067 91.2471C235.629 91.6685 235.266 92.1742 234.98 92.7641C234.693 93.3372 234.525 93.9609 234.474 94.6351H244.158C244.158 93.8934 244.031 93.2361 243.778 92.663C243.526 92.0731 243.188 91.5674 242.767 91.146C242.363 90.7246 241.874 90.4044 241.301 90.1853C240.744 89.9661 240.146 89.8566 239.506 89.8566ZM252.457 88.8705C253.805 88.8705 255.002 89.2414 256.047 89.983V91.1207C254.917 90.278 253.721 89.8566 252.457 89.8566C251.496 89.8566 250.72 90.0757 250.131 90.5139C249.557 90.9522 249.271 91.5253 249.271 92.2332C249.271 92.5871 249.347 92.899 249.498 93.1687C249.667 93.4215 249.895 93.649 250.181 93.8513C250.484 94.0536 250.838 94.239 251.243 94.4075C251.648 94.5761 252.103 94.7446 252.608 94.9132C253.148 95.0817 253.662 95.2671 254.151 95.4694C254.639 95.6717 255.069 95.9076 255.44 96.1773C255.811 96.447 256.106 96.7757 256.325 97.1634C256.544 97.5342 256.654 97.9977 256.654 98.5539C256.654 99.0764 256.544 99.5568 256.325 99.9951C256.123 100.433 255.828 100.813 255.44 101.133C255.069 101.453 254.622 101.697 254.1 101.866C253.577 102.035 252.996 102.119 252.355 102.119C251.597 102.119 250.838 101.992 250.08 101.74C249.338 101.487 248.647 101.108 248.007 100.602V99.3883C248.63 99.9445 249.305 100.374 250.029 100.678C250.754 100.981 251.513 101.133 252.305 101.133C253.316 101.133 254.117 100.897 254.707 100.425C255.314 99.9529 255.617 99.3377 255.617 98.5792C255.617 98.1915 255.533 97.8629 255.364 97.5932C255.212 97.3066 254.985 97.0538 254.681 96.8347C254.378 96.6156 254.007 96.4217 253.569 96.2532C253.148 96.0846 252.676 95.9161 252.153 95.7475C251.648 95.579 251.159 95.402 250.687 95.2166C250.215 95.0312 249.793 94.812 249.423 94.5592C249.069 94.2895 248.782 93.9777 248.563 93.6237C248.344 93.2529 248.234 92.8063 248.234 92.2837C248.234 91.7949 248.335 91.3399 248.538 90.9185C248.757 90.4971 249.052 90.1347 249.423 89.8313C249.793 89.5279 250.232 89.2919 250.737 89.1234C251.26 88.9548 251.833 88.8705 252.457 88.8705Z" fill="#8C96AB"/>
</svg>
