<svg width="24" height="24" viewBox="0 0 24 24" fill="none" xmlns="http://www.w3.org/2000/svg">
<path fill-rule="evenodd" clip-rule="evenodd" d="M21.5019 18.4929C22.9304 16.566 23.7751 14.1803 23.7751 11.5973C23.7751 5.19533 18.5853 0.00561523 12.1835 0.00561523C5.78152 0.00561523 0.591797 5.19533 0.591797 11.5973C0.591797 17.9991 5.78152 23.1889 12.1835 23.1889C15.5422 23.1889 18.5673 21.7605 20.6845 19.4778C20.9744 19.165 21.2474 18.8363 21.5019 18.4929ZM20.8592 17.3931C21.9688 15.7354 22.6159 13.7419 22.6159 11.5973C22.6159 5.83558 17.9452 1.16476 12.1833 1.16476C6.42176 1.16476 1.75094 5.83558 1.75094 11.5973C1.75094 13.742 2.39803 15.7354 3.50776 17.3931C4.90775 15.3016 7.04402 13.7446 9.54579 13.0928C8.33784 12.2558 7.54677 10.8598 7.54677 9.27888C7.54677 6.71814 9.62273 4.64218 12.1835 4.64218C14.7442 4.64218 16.8202 6.71814 16.8202 9.27888C16.8202 10.8597 16.029 12.2558 14.8211 13.0927C17.3228 13.7446 19.4592 15.3015 20.8592 17.3931ZM20.1125 18.3775C18.4857 15.7024 15.5433 13.9156 12.1836 13.9156C8.82371 13.9156 5.88121 15.7024 4.25442 18.3776C6.16781 20.6131 9.01013 22.0298 12.1835 22.0298C15.3568 22.0298 18.1991 20.6129 20.1125 18.3775ZM12.1835 12.7564C14.1041 12.7564 15.661 11.1996 15.661 9.27888C15.661 7.35827 14.1042 5.80133 12.1835 5.80133C10.2627 5.80133 8.70592 7.35839 8.70592 9.279C8.70592 11.1996 10.2629 12.7564 12.1835 12.7564Z" fill="#0A3323"/>
</svg>
