<svg width="24" height="24" viewBox="0 0 24 24" fill="none" xmlns="http://www.w3.org/2000/svg">
<g clip-path="url(#clip0_78_6239)">
<path d="M9.17674 8.1361H1.44896C0.650099 8.1361 0 7.486 0 6.68715V1.85728C0 1.05842 0.650099 0.408325 1.44896 0.408325H9.17674C9.9756 0.408325 10.6257 1.05842 10.6257 1.85728V6.68715C10.6257 7.486 9.9756 8.1361 9.17674 8.1361ZM1.44896 1.3743C1.18332 1.3743 0.965972 1.59068 0.965972 1.85728V6.68715C0.965972 6.95375 1.18332 7.17013 1.44896 7.17013H9.17674C9.44238 7.17013 9.65972 6.95375 9.65972 6.68715V1.85728C9.65972 1.59068 9.44238 1.3743 9.17674 1.3743H1.44896Z" fill="#0A3323"/>
<path d="M9.17674 23.5917H1.44896C0.650099 23.5917 0 22.9416 0 22.1427V11.517C0 10.7182 0.650099 10.0681 1.44896 10.0681H9.17674C9.9756 10.0681 10.6257 10.7182 10.6257 11.517V22.1427C10.6257 22.9416 9.9756 23.5917 9.17674 23.5917ZM1.44896 11.034C1.18332 11.034 0.965972 11.2504 0.965972 11.517V22.1427C0.965972 22.4093 1.18332 22.6257 1.44896 22.6257H9.17674C9.44238 22.6257 9.65972 22.4093 9.65972 22.1427V11.517C9.65972 11.2504 9.44238 11.034 9.17674 11.034H1.44896Z" fill="#0A3323"/>
<path d="M21.7344 23.5917H14.0066C13.2077 23.5917 12.5576 22.9416 12.5576 22.1427V17.3128C12.5576 16.514 13.2077 15.8639 14.0066 15.8639H21.7344C22.5332 15.8639 23.1833 16.514 23.1833 17.3128V22.1427C23.1833 22.9416 22.5332 23.5917 21.7344 23.5917ZM14.0066 16.8299C13.7409 16.8299 13.5236 17.0462 13.5236 17.3128V22.1427C13.5236 22.4093 13.7409 22.6257 14.0066 22.6257H21.7344C22 22.6257 22.2173 22.4093 22.2173 22.1427V17.3128C22.2173 17.0462 22 16.8299 21.7344 16.8299H14.0066Z" fill="#0A3323"/>
<path d="M21.7344 13.9319H14.0066C13.2077 13.9319 12.5576 13.2818 12.5576 12.483V1.85728C12.5576 1.05842 13.2077 0.408325 14.0066 0.408325H21.7344C22.5332 0.408325 23.1833 1.05842 23.1833 1.85728V12.483C23.1833 13.2818 22.5332 13.9319 21.7344 13.9319ZM14.0066 1.3743C13.7409 1.3743 13.5236 1.59068 13.5236 1.85728V12.483C13.5236 12.7496 13.7409 12.966 14.0066 12.966H21.7344C22 12.966 22.2173 12.7496 22.2173 12.483V1.85728C22.2173 1.59068 22 1.3743 21.7344 1.3743H14.0066Z" fill="#0A3323"/>
</g>
<defs>
<clipPath id="clip0_78_6239">
<rect width="23.1833" height="23.1833" fill="white" transform="translate(0 0.408325)"/>
</clipPath>
</defs>
</svg>
