<svg width="16" height="25" viewBox="0 0 16 25" fill="none" xmlns="http://www.w3.org/2000/svg">
<path d="M8.15119 3.1355H5.13232V4.87053L8.15119 4.87033V3.1355ZM7.54747 4.29202H5.73604V3.71376H7.54747V4.29202Z" fill="black"/>
<path d="M11.7738 3.1355H8.75488V4.87053L11.7738 4.87033V3.1355ZM11.17 4.29202H9.3586V3.71376H11.17V4.29202Z" fill="black"/>
<path d="M4.22652 0.822266V5.44886H0V24.8223H16V0.822369L4.22652 0.822266ZM6.03795 24.2439H0.60399V23.4978H6.03795V24.2439ZM7.54739 24.2439H6.64167V21.3523H7.54739V24.2439ZM9.05682 24.2439H8.15111V21.3523H9.05682V24.2439ZM15.3964 24.2439H9.66059V23.4978H15.3964V24.2439ZM15.3964 22.9195H9.66059V20.7738H6.03779V22.9193L0.603828 22.9195V6.02716H15.3963L15.3964 22.9195ZM15.3962 5.44886H4.83019V2.5573H15.3962V5.44886ZM15.3962 1.97904L4.83019 1.97884V1.40058H15.3962V1.97904Z" fill="black"/>
<path d="M1.81152 10.0753H4.22667V6.89465H1.81152V10.0753ZM2.41524 7.47296H3.62268V9.497H2.41524V7.47296Z" fill="black"/>
<path d="M7.54726 6.89453H5.13232V10.0751H7.54747L7.54726 6.89453ZM6.94354 9.49683H5.7361V7.47279H6.94354V9.49683Z" fill="black"/>
<path d="M10.8683 6.89453H8.45312V10.0751H10.8683V6.89453ZM10.2646 9.49683H9.0569V7.47279H10.2643L10.2646 9.49683Z" fill="black"/>
<path d="M14.1891 6.89453H11.7739V10.0751H14.1891V6.89453ZM13.5854 9.49683H12.3777V7.47279H13.5851L13.5854 9.49683Z" fill="black"/>
<path d="M1.81152 18.7499H4.22667V15.5693H1.81152V18.7499ZM2.41524 16.1476H3.62268V18.1717H2.41524V16.1476Z" fill="black"/>
<path d="M7.54726 15.5693H5.13232V18.7499H7.54747L7.54726 15.5693ZM6.94354 18.1716H5.7361V16.1476H6.94354V18.1716Z" fill="black"/>
<path d="M10.8683 15.5693H8.45312V18.7499H10.8683V15.5693ZM10.2646 18.1716H9.0569V16.1476H10.2643L10.2646 18.1716Z" fill="black"/>
<path d="M14.1891 15.5693H11.7739V18.7499H14.1891V15.5693ZM13.5854 18.1716H12.3777V16.1476H13.5851L13.5854 18.1716Z" fill="black"/>
<path d="M3.20028 11.2319H2.83787C2.56601 11.2325 2.30532 11.3364 2.11308 11.5206C1.92082 11.7049 1.81237 11.9544 1.81152 12.215V14.4125H4.22667V12.215C4.22583 11.9544 4.11738 11.7049 3.92512 11.5206C3.73286 11.3364 3.47213 11.2325 3.20028 11.2319ZM3.62291 13.8342H2.41526V12.215C2.41526 11.9913 2.60457 11.8102 2.83789 11.8102H3.2003C3.43362 11.8102 3.62293 11.9913 3.62293 12.215L3.62291 13.8342Z" fill="black"/>
<path d="M7.54722 12.215C7.54659 11.9544 7.43815 11.7049 7.24589 11.5206C7.05342 11.3364 6.79293 11.2325 6.52087 11.2319H6.15867C5.8866 11.2325 5.62612 11.3364 5.43366 11.5206C5.2414 11.7049 5.13295 11.9544 5.13232 12.215V14.4125H7.54747L7.54722 12.215ZM6.9435 13.8342H5.73607V12.215C5.73607 11.9913 5.92516 11.8102 6.1587 11.8102H6.5209C6.75443 11.8102 6.94353 11.9913 6.94353 12.215L6.9435 13.8342Z" fill="black"/>
<path d="M10.8682 12.215C10.8674 11.9544 10.7589 11.7049 10.5667 11.5206C10.3744 11.3364 10.1137 11.2325 9.84189 11.2319H9.47947C9.20762 11.2325 8.94692 11.3364 8.75468 11.5206C8.56242 11.7049 8.45397 11.9544 8.45312 12.215V14.4125H10.8683L10.8682 12.215ZM10.2645 13.8342H9.05686V12.215C9.05686 11.9913 9.24617 11.8102 9.47949 11.8102H9.8419C10.0752 11.8102 10.2645 11.9913 10.2645 12.215L10.2645 13.8342Z" fill="black"/>
<path d="M14.189 12.215C14.1882 11.9544 14.0798 11.7049 13.8875 11.5206C13.6952 11.3364 13.4345 11.2325 13.1625 11.2319H12.8003C12.5282 11.2325 12.2677 11.3364 12.0755 11.5206C11.883 11.7049 11.7748 11.9544 11.7739 12.215V14.4125H14.1891L14.189 12.215ZM13.5851 13.8342H12.3777V12.215C12.3777 12.1077 12.4221 12.0046 12.5015 11.9288C12.5807 11.8527 12.6883 11.8102 12.8003 11.8102H13.1625C13.396 11.8102 13.5851 11.9913 13.5851 12.215L13.5851 13.8342Z" fill="black"/>
<path d="M6.33984 19.9065H9.35871V20.4848H6.33984V19.9065Z" fill="black"/>
</svg>
